<?xml version="1.0" encoding="UTF-8"?><svg id="a" xmlns="http://www.w3.org/2000/svg" viewBox="0 0 568.9 46.19"><defs><style>.b{fill:#fff;}</style></defs><path class="b" d="M31.23,45.23H0V.62H8.93V36.3H31.23v8.93Z"/><path class="b" d="M44.79,45.23h-8.93V.62h8.93V45.23Z"/><path class="b" d="M87.16,.62l-14.65,44.61h-8.93L48.99,.62h10.14l8.9,29.77L76.96,.62h10.2Z"/><path class="b" d="M100.35,45.23h-8.93V.62h8.93V45.23Z"/><path class="b" d="M144.3,45.23h-9.55l-17.2-29.36v29.36h-8.93V.62h9.55l17.2,29.4V.62h8.93V45.23Z"/><path class="b" d="M188.07,40.72c-2.07,1.76-4.39,3.12-6.94,4.06s-5.21,1.42-7.96,1.42c-2.12,0-4.15-.28-6.11-.82-1.96-.55-3.79-1.33-5.49-2.33-1.7-1.01-3.26-2.21-4.67-3.61-1.41-1.4-2.61-2.96-3.61-4.67s-1.77-3.55-2.32-5.52c-.55-1.97-.82-4.01-.82-6.13s.27-4.15,.82-6.1c.55-1.95,1.32-3.78,2.32-5.49,1-1.71,2.2-3.27,3.61-4.67,1.41-1.4,2.97-2.6,4.67-3.59,1.7-1,3.53-1.77,5.49-2.32,1.96-.55,4-.82,6.11-.82,2.76,0,5.41,.47,7.96,1.42,2.55,.94,4.86,2.3,6.94,4.06l-4.67,7.78c-1.35-1.37-2.9-2.44-4.67-3.22-1.76-.78-3.62-1.17-5.57-1.17s-3.78,.37-5.49,1.12c-1.71,.75-3.21,1.76-4.5,3.03-1.29,1.28-2.3,2.77-3.05,4.48s-1.12,3.54-1.12,5.49,.37,3.82,1.12,5.54c.75,1.72,1.76,3.23,3.05,4.51,1.29,1.29,2.78,2.3,4.5,3.05,1.71,.75,3.54,1.12,5.49,1.12,1.12,0,2.21-.13,3.27-.4s2.06-.64,3.02-1.12v-12.69h8.62v17.61Z"/><path class="b" d="M247.95,45.23h-8.93v-8.93h-17.85v8.93h-8.9V18.48c0-2.47,.47-4.79,1.4-6.95s2.2-4.06,3.81-5.68c1.61-1.62,3.49-2.89,5.66-3.83s4.48-1.4,6.95-1.4,4.79,.47,6.95,1.4c2.17,.93,4.06,2.21,5.68,3.83,1.62,1.62,2.89,3.51,3.83,5.68,.93,2.17,1.4,4.48,1.4,6.95v26.75Zm-8.93-17.82v-8.93c0-1.22-.23-2.38-.7-3.47-.47-1.09-1.1-2.04-1.91-2.85s-1.76-1.45-2.85-1.91c-1.09-.47-2.25-.7-3.47-.7s-2.38,.23-3.47,.7c-1.09,.47-2.04,1.1-2.85,1.91s-1.45,1.76-1.91,2.85c-.47,1.09-.7,2.24-.7,3.47v8.93h17.85Z"/><path class="b" d="M264.62,45.23h-8.93V.62h17.85c1.64,0,3.21,.21,4.73,.64,1.51,.43,2.93,1.03,4.25,1.8,1.32,.78,2.52,1.71,3.61,2.8,1.09,1.09,2.02,2.3,2.8,3.62s1.38,2.75,1.8,4.26c.42,1.51,.64,3.09,.64,4.73,0,1.53-.19,3.03-.57,4.48-.38,1.45-.93,2.83-1.65,4.14-.72,1.31-1.59,2.51-2.63,3.61s-2.2,2.05-3.48,2.86l4.95,11.66h-9.49l-3.89-8.99-9.98,.06v8.93Zm0-35.68V27.4h8.93c1.22,0,2.37-.23,3.45-.7,1.08-.47,2.02-1.1,2.83-1.91,.81-.81,1.45-1.76,1.91-2.85,.47-1.09,.7-2.24,.7-3.47s-.23-2.38-.7-3.47c-.47-1.09-1.1-2.04-1.91-2.85-.81-.81-1.75-1.45-2.83-1.91-1.08-.47-2.23-.7-3.45-.7h-8.93Z"/><path class="b" d="M341.48,45.23h-8.9V13.38c0-.62-.12-1.2-.36-1.74s-.56-1.01-.96-1.42-.88-.72-1.42-.95c-.54-.23-1.12-.34-1.74-.34s-1.2,.11-1.74,.34c-.54,.23-1.01,.54-1.42,.95s-.72,.88-.95,1.42-.34,1.12-.34,1.74v31.85h-8.93V13.38c0-.62-.11-1.2-.34-1.74-.23-.54-.54-1.01-.95-1.42-.4-.4-.88-.72-1.42-.95-.54-.23-1.12-.34-1.74-.34s-1.2,.11-1.74,.34c-.54,.23-1.01,.54-1.42,.95s-.72,.88-.95,1.42c-.23,.54-.34,1.12-.34,1.74v31.85h-8.93V13.38c0-1.85,.35-3.58,1.04-5.21,.69-1.63,1.65-3.05,2.86-4.26,1.21-1.21,2.63-2.17,4.26-2.86,1.63-.69,3.36-1.04,5.21-1.04,1.66,0,3.26,.3,4.79,.89,1.53,.59,2.91,1.45,4.14,2.57,1.22-1.12,2.6-1.98,4.12-2.57,1.52-.59,3.12-.89,4.77-.89,1.85,0,3.58,.35,5.21,1.04,1.63,.69,3.05,1.65,4.26,2.86,1.21,1.21,2.17,2.63,2.86,4.26,.7,1.63,1.04,3.37,1.04,5.21v31.85Z"/><path class="b" d="M385.06,40.66c-2.07,1.78-4.4,3.15-6.97,4.11-2.57,.95-5.24,1.43-8,1.43-2.12,0-4.15-.28-6.11-.82-1.96-.55-3.79-1.33-5.5-2.33-1.71-1.01-3.27-2.21-4.68-3.62-1.41-1.41-2.62-2.97-3.62-4.68-1.01-1.71-1.78-3.55-2.33-5.51-.55-1.96-.82-4-.82-6.11s.27-4.16,.82-6.13c.55-1.97,1.33-3.81,2.33-5.52s2.21-3.27,3.62-4.68c1.41-1.41,2.97-2.62,4.68-3.62,1.71-1.01,3.55-1.78,5.5-2.33,1.96-.55,4-.82,6.11-.82,2.76,0,5.42,.47,8,1.42,2.57,.94,4.89,2.32,6.97,4.12l-4.73,7.78c-1.31-1.41-2.85-2.49-4.63-3.25-1.78-.76-3.65-1.14-5.6-1.14s-3.82,.37-5.54,1.12c-1.72,.75-3.22,1.76-4.51,3.03s-2.3,2.78-3.05,4.51c-.75,1.73-1.12,3.57-1.12,5.52s.37,3.78,1.12,5.49c.75,1.71,1.76,3.21,3.05,4.49,1.29,1.29,2.79,2.3,4.51,3.05,1.72,.75,3.57,1.12,5.54,1.12s3.82-.38,5.6-1.14c1.78-.76,3.33-1.84,4.63-3.25l4.73,7.78Z"/><path class="b" d="M399.15,45.23h-8.93V.62h8.93V18.48h17.82V.62h8.93V45.23h-8.93V27.4h-17.82v17.82Z"/><path class="b" d="M469.36,45.23h-8.93v-8.93h-17.85v8.93h-8.9V18.48c0-2.47,.47-4.79,1.4-6.95,.93-2.17,2.2-4.06,3.81-5.68,1.61-1.62,3.49-2.89,5.66-3.83s4.48-1.4,6.95-1.4,4.79,.47,6.95,1.4,4.06,2.21,5.68,3.83c1.62,1.62,2.89,3.51,3.83,5.68,.93,2.17,1.4,4.48,1.4,6.95v26.75Zm-8.93-17.82v-8.93c0-1.22-.23-2.38-.7-3.47-.47-1.09-1.1-2.04-1.91-2.85-.81-.81-1.76-1.45-2.85-1.91-1.09-.47-2.25-.7-3.47-.7s-2.38,.23-3.47,.7c-1.09,.47-2.04,1.1-2.85,1.91-.81,.81-1.45,1.76-1.91,2.85-.47,1.09-.7,2.24-.7,3.47v8.93h17.85Z"/><path class="b" d="M486.03,45.23h-8.93V.62h8.93V45.23Z"/><path class="b" d="M503.23,45.23h-8.93V.62h17.86c1.64,0,3.21,.21,4.73,.64,1.51,.43,2.93,1.03,4.25,1.8,1.32,.78,2.52,1.71,3.61,2.8,1.09,1.09,2.02,2.3,2.8,3.62,.78,1.33,1.38,2.75,1.8,4.26,.42,1.51,.64,3.09,.64,4.73,0,1.53-.19,3.03-.58,4.48-.38,1.45-.93,2.83-1.65,4.14-.72,1.31-1.59,2.51-2.63,3.61s-2.2,2.05-3.48,2.86l4.95,11.66h-9.49l-3.89-8.99-9.99,.06v8.93Zm0-35.68V27.4h8.93c1.22,0,2.37-.23,3.45-.7,1.08-.47,2.02-1.1,2.83-1.91,.81-.81,1.45-1.76,1.91-2.85,.47-1.09,.7-2.24,.7-3.47s-.23-2.38-.7-3.47c-.47-1.09-1.1-2.04-1.91-2.85-.81-.81-1.75-1.45-2.83-1.91-1.08-.47-2.23-.7-3.45-.7h-8.93Z"/><path class="b" d="M533.22,14c0-1.85,.35-3.58,1.06-5.19,.7-1.62,1.66-3.03,2.88-4.25,1.21-1.21,2.63-2.17,4.25-2.88,1.62-.7,3.35-1.06,5.19-1.06h20.47V9.55h-20.47c-.62,0-1.2,.11-1.74,.34-.54,.23-1.01,.54-1.42,.95s-.72,.88-.95,1.42c-.23,.54-.34,1.12-.34,1.74s.11,1.21,.34,1.76c.23,.55,.54,1.03,.95,1.43s.88,.72,1.42,.95c.54,.23,1.12,.34,1.74,.34h8.93c1.85,0,3.58,.35,5.21,1.04s3.05,1.65,4.26,2.86c1.21,1.21,2.17,2.63,2.86,4.26,.69,1.63,1.04,3.36,1.04,5.21s-.35,3.58-1.04,5.19c-.7,1.62-1.65,3.03-2.86,4.25-1.21,1.21-2.63,2.17-4.26,2.88-1.63,.71-3.36,1.06-5.21,1.06h-19.81v-8.93h19.81c.62,0,1.2-.11,1.74-.34,.54-.23,1.01-.54,1.42-.95s.72-.88,.95-1.42c.23-.54,.34-1.12,.34-1.74s-.11-1.2-.34-1.74c-.23-.54-.54-1.01-.95-1.42s-.88-.72-1.42-.95c-.54-.23-1.12-.34-1.74-.34h-8.93c-1.85,0-3.58-.35-5.19-1.06-1.62-.7-3.03-1.66-4.25-2.88-1.21-1.21-2.17-2.63-2.88-4.26-.71-1.63-1.06-3.36-1.06-5.21Z"/></svg>