<?xml version="1.0" encoding="UTF-8"?><svg id="a" xmlns="http://www.w3.org/2000/svg" viewBox="0 0 509.81 64.14"><defs><style>.b{fill:#fff;}</style></defs><path class="b" d="M38.76,1.83c3.3,1.22,4.95,2.87,4.95,4.95s-.79,4.65-2.36,7.72c-1.58,3.06-2.9,4.59-3.97,4.59-.3,0-.64-.16-1.03-.49-.39-.33-1.28-.68-2.68-1.07-1.4-.39-2.6-.58-3.61-.58-3.45,0-6.23,1.22-8.34,3.66-2.11,2.44-3.17,6.17-3.17,11.2s1.08,8.76,3.26,11.2c2.17,2.44,4.92,3.66,8.25,3.66,1.37,0,2.9-.19,4.59-.58,1.7-.39,2.9-.94,3.61-1.65,.12-.12,.36-.18,.71-.18s1.03,.67,2.01,2.01c.98,1.34,1.89,3.09,2.72,5.26,.83,2.17,1.25,3.85,1.25,5.04,0,2.32-1.78,4.16-5.35,5.53s-7.79,2.05-12.67,2.05c-7.85,0-14.3-2.77-19.36-8.3C2.53,50.31,0,42.51,0,32.43S2.6,14.42,7.81,8.65C13.01,2.89,19.51,0,27.3,0c4.34,0,8.16,.61,11.46,1.83Z"/><path class="b" d="M78.37,64.14c-8.36,0-15.17-2.73-20.43-8.21-5.26-5.47-7.89-13.45-7.89-23.95s2.66-18.45,7.98-23.86C63.35,2.71,70.22,0,78.63,0s15.21,2.66,20.38,7.98c5.17,5.32,7.76,13.38,7.76,24.17s-2.65,18.82-7.94,24.09c-5.29,5.26-12.12,7.89-20.47,7.89Zm.04-47.01c-2.85,0-5.25,1.31-7.18,3.93-1.93,2.62-2.9,6.29-2.9,11.02s.92,8.36,2.77,10.88c1.84,2.53,4.27,3.79,7.27,3.79s5.44-1.28,7.31-3.84c1.87-2.56,2.81-6.21,2.81-10.97s-.97-8.41-2.9-10.97c-1.93-2.56-4.33-3.84-7.18-3.84Z"/><path class="b" d="M176.36,63.34c-5.29,0-7.94-.59-7.94-1.78l-1.87-35.77-10.88,36.22c-.24,.71-2.26,1.07-6.07,1.07s-5.77-.33-5.89-.98l-11.24-36.66-1.25,35.59c-.06,.89-1.19,1.5-3.39,1.83-2.2,.33-4.03,.49-5.49,.49s-2.87-.09-4.24-.27c-2.85-.42-4.25-1.16-4.19-2.23l2.05-57.98c0-1.43,3.63-2.14,10.88-2.14,2.14,0,4.76,.16,7.85,.49,3.09,.33,4.82,.97,5.17,1.92l9.99,28.1,8.74-28.19c.54-1.55,4.64-2.32,12.31-2.32,2.2,0,4.83,.16,7.89,.49,3.06,.33,4.59,.91,4.59,1.74l2.59,58.52c0,.66-1.16,1.13-3.48,1.43-2.32,.3-4.37,.45-6.16,.45Z"/><path class="b" d="M200.71,47.9V16.15h-6.33c-1.01,0-1.73-1.28-2.14-3.84-.18-1.25-.27-2.53-.27-3.84s.09-2.59,.27-3.84c.42-2.56,1.13-3.84,2.14-3.84h29.97c1.01,0,1.7,1.28,2.05,3.84,.24,1.25,.36,2.53,.36,3.84s-.12,2.59-.36,3.84c-.36,2.56-1.04,3.84-2.05,3.84h-5.98v31.76h6.24c1.01,0,1.72,1.28,2.14,3.84,.24,1.25,.36,2.53,.36,3.84s-.12,2.59-.36,3.84c-.42,2.56-1.13,3.84-2.14,3.84h-30.06c-1.01,0-1.7-1.28-2.05-3.84-.24-1.25-.36-2.53-.36-3.84s.12-2.59,.36-3.84c.36-2.56,1.04-3.84,2.05-3.84h6.15Z"/><path class="b" d="M270.07,1.83c3.3,1.22,4.95,2.87,4.95,4.95s-.79,4.65-2.36,7.72c-1.58,3.06-2.9,4.59-3.97,4.59-.3,0-.64-.16-1.03-.49-.39-.33-1.28-.68-2.68-1.07-1.4-.39-2.6-.58-3.61-.58-3.45,0-6.23,1.22-8.34,3.66-2.11,2.44-3.17,6.17-3.17,11.2s1.08,8.76,3.26,11.2c2.17,2.44,4.92,3.66,8.25,3.66,1.37,0,2.9-.19,4.59-.58,1.69-.39,2.9-.94,3.61-1.65,.12-.12,.36-.18,.71-.18s1.03,.67,2.01,2.01c.98,1.34,1.89,3.09,2.72,5.26,.83,2.17,1.25,3.85,1.25,5.04,0,2.32-1.78,4.16-5.35,5.53-3.57,1.37-7.79,2.05-12.67,2.05-7.85,0-14.3-2.77-19.36-8.3-5.06-5.53-7.58-13.34-7.58-23.42s2.6-18,7.81-23.77c5.2-5.77,11.7-8.65,19.49-8.65,4.34,0,8.16,.61,11.46,1.83Z"/><path class="b" d="M302.23,41.48c1.13,.89,3.08,2.11,5.84,3.66,2.76,1.55,5.41,2.32,7.94,2.32s3.79-.98,3.79-2.94c0-.89-.36-1.68-1.07-2.36-.71-.68-2.02-1.47-3.93-2.36-1.9-.89-3.33-1.59-4.28-2.1-.95-.5-2.22-1.34-3.79-2.5-1.58-1.16-2.78-2.36-3.61-3.61-2.38-3.39-3.57-7.7-3.57-12.94s1.95-9.65,5.84-13.25c3.89-3.6,9-5.4,15.3-5.4,4.28,0,8.24,.46,11.86,1.38,3.63,.92,5.5,2.13,5.62,3.61v.54c0,2.08-.66,4.71-1.96,7.9-1.31,3.18-2.23,4.95-2.77,5.31-3.81-1.96-7.21-2.94-10.21-2.94s-4.5,1.07-4.5,3.21c0,1.31,1.1,2.47,3.3,3.48,.48,.24,1.16,.57,2.05,.98,.89,.42,1.92,.91,3.08,1.47,1.16,.57,2.41,1.28,3.75,2.14,1.34,.86,2.78,2.01,4.33,3.43,3.15,2.97,4.73,6.9,4.73,11.78,0,6.36-1.75,11.57-5.26,15.61-3.51,4.04-8.92,6.12-16.24,6.24-3.57,0-6.79-.3-9.68-.89-2.88-.59-5.4-1.75-7.54-3.48-2.14-1.72-3.21-3.81-3.21-6.24s.45-4.86,1.34-7.27c.89-2.41,1.84-4,2.85-4.77Z"/><path class="b" d="M395.8,61.73c0,1.01-3,1.52-9.01,1.52s-9.01-.5-9.01-1.52v-20.52h-12.49v20.52c0,1.01-3,1.52-9.01,1.52s-9.01-.5-9.01-1.52V2.59c0-1.25,3-1.87,9.01-1.87s9.01,.62,9.01,1.87V23.55h12.49V2.77c0-.83,1.49-1.43,4.46-1.78,1.55-.12,3.06-.18,4.55-.18l4.55,.18c2.97,.36,4.46,.95,4.46,1.78V61.73Z"/><path class="b" d="M431.26,64.14c-8.36,0-15.17-2.73-20.43-8.21-5.26-5.47-7.9-13.45-7.9-23.95s2.66-18.45,7.98-23.86c5.32-5.41,12.19-8.12,20.61-8.12s15.21,2.66,20.38,7.98c5.17,5.32,7.76,13.38,7.76,24.17s-2.65,18.82-7.94,24.09c-5.29,5.26-12.12,7.89-20.47,7.89Zm.04-47.01c-2.85,0-5.25,1.31-7.18,3.93-1.93,2.62-2.9,6.29-2.9,11.02s.92,8.36,2.76,10.88c1.84,2.53,4.27,3.79,7.27,3.79s5.44-1.28,7.31-3.84c1.87-2.56,2.81-6.21,2.81-10.97s-.97-8.41-2.9-10.97c-1.93-2.56-4.33-3.84-7.18-3.84Z"/><path class="b" d="M474.57,63.43c-5.41,0-8.12-.59-8.12-1.78V3.84c0-2.02,.92-3.03,2.77-3.03h15.7c8.8,0,15.15,1.81,19.04,5.44,3.89,3.63,5.84,8.89,5.84,15.79,0,5.71-1.84,10.94-5.53,15.7-1.84,2.38-4.55,4.28-8.12,5.71-3.57,1.43-7.73,2.14-12.49,2.14v15.97c0,.71-1.12,1.2-3.35,1.47-2.23,.27-4.15,.4-5.75,.4Zm9.1-47.1v14.09h1.16c2.08,0,3.84-.65,5.26-1.96,1.43-1.31,2.14-3.15,2.14-5.53s-.49-4.07-1.47-5.08c-.98-1.01-2.72-1.52-5.22-1.52h-1.87Z"/></svg>